<svg width="107" height="118" viewBox="0 0 107 118" fill="none" xmlns="http://www.w3.org/2000/svg">
<path d="M90.099 3.37148C86.052 8.32327 86.052 8.32327 82.431 10.5358C78.0645 13.0643 73.698 20.8608 72.5265 28.4465C71.994 31.7126 70.8225 36.2429 69.864 38.3501C67.947 42.8804 69.864 42.775 49.5225 38.9822C22.6845 34.0304 7.77447 35.2947 3.08847 42.8804C0.319471 47.3054 -0.532529 55.5233 1.27797 59.8429C1.91697 61.4233 2.66247 69.2197 2.76897 77.4375C2.87547 89.5536 3.40797 93.5572 5.43147 100.195C8.73297 110.625 10.5435 113.259 13.632 112.205C15.762 111.573 15.8685 111.257 14.697 109.782C13.5255 108.413 13.632 108.202 15.6555 108.729C19.0635 109.571 19.596 106.832 16.827 103.039C15.2295 100.616 14.484 97.7715 14.058 91.9768L13.5255 84.075L18.4245 79.4393L23.3235 74.909L27.903 76.2786C30.459 77.1215 35.6775 78.5965 39.618 79.5447C46.434 81.3358 46.647 81.4411 46.3275 84.3911C46.1145 86.0768 46.3275 87.4465 46.7535 87.4465C49.0965 87.4465 50.055 93.2411 49.3095 103.566C48.777 113.048 48.8835 114.629 50.5875 116.209C52.824 118.527 54.954 118 54.528 115.261C52.611 104.725 54.102 88.184 56.9775 88.3947C57.6165 88.5 58.0425 92.3983 58.0425 97.7715C58.149 108.307 58.8945 111.257 61.983 112.838C64.8585 114.418 66.5625 111.995 64.326 109.466C60.066 104.83 60.3855 96.5072 65.391 85.3393C66.882 82.1786 68.2665 78.8072 68.586 77.7536C68.799 76.8054 72.1005 74.3822 75.828 72.275C82.5375 68.5875 87.0105 64.0572 87.6495 60.3697C87.756 59.3161 88.2885 57.8411 88.821 57.1036C89.9925 55.2072 91.59 30.9751 90.8445 25.7072L90.312 21.3876L94.8915 20.7554C97.341 20.4393 100.323 20.6501 101.494 21.1768C104.263 22.7572 106.5 21.5983 106.5 18.6483C106.5 16.6465 105.115 15.2768 100.536 12.5376C94.359 8.7447 94.146 8.32327 96.3825 1.58041C97.0215 -0.316017 96.915 -0.316017 95.637 1.26434C94.8915 2.21255 93.6135 3.89827 92.9745 4.95184C91.9095 6.5322 91.803 6.32148 92.7615 3.79291C94.2525 -0.526733 93.4005 -0.632088 90.099 3.37148ZM13.206 105.884C13.5255 107.043 12.8865 105.989 11.715 103.566C10.5435 101.143 9.37197 96.9286 9.05247 94.084C8.62647 89.4483 8.73297 89.659 10.5435 96.4018C11.6085 100.405 12.78 104.725 13.206 105.884Z" fill="black"/>
</svg>
