<svg width="196" height="55" viewBox="0 0 196 55" fill="none" xmlns="http://www.w3.org/2000/svg">
<path d="M41.6493 1.5104C39.7718 3.80765 39.7718 3.80765 38.092 4.83408C36.0662 6.00715 34.0405 9.62411 33.497 13.1433C33.25 14.6585 32.7065 16.7603 32.2618 17.7378C31.3725 19.8396 32.2618 19.7907 22.8249 18.0311C10.3741 15.7338 3.45693 16.3204 1.28297 19.8396C-0.00163639 21.8924 -0.396901 25.7049 0.443036 27.7089C0.739484 28.4421 1.08534 32.059 1.13475 35.8715C1.18416 41.4924 1.4312 43.3498 2.36995 46.4291C3.9016 51.268 4.74153 52.49 6.17437 52.0012C7.16253 51.7079 7.21194 51.5613 6.66845 50.877C6.12496 50.2416 6.17437 50.1438 7.11312 50.3882C8.69418 50.7792 8.94122 49.5084 7.65661 47.7488C6.91549 46.6246 6.56963 45.3049 6.372 42.6166L6.12496 38.9508L8.39773 36.8002L10.6705 34.6984L12.795 35.3338C13.9808 35.7249 16.4018 36.4092 18.2299 36.8491C21.392 37.68 21.4909 37.7289 21.3426 39.0974C21.2438 39.8795 21.3426 40.5149 21.5403 40.5149C22.6272 40.5149 23.0719 43.2032 22.7261 47.9932C22.479 52.3922 22.5284 53.1254 23.319 53.8585C24.3565 54.9338 25.3447 54.6895 25.1471 53.4186C24.2577 48.5309 24.9494 40.857 26.2834 40.9548C26.5799 41.0037 26.7775 42.8122 26.7775 45.3049C26.8269 50.1927 27.1728 51.5613 28.6056 52.2944C29.9396 53.0276 30.7302 51.9034 29.6926 50.7304C27.7163 48.5797 27.8645 44.7184 30.1867 39.5373C30.8784 38.071 31.5207 36.5069 31.6689 36.0181C31.7677 35.5782 33.2994 34.454 35.0287 33.4765C38.1414 31.7658 40.2165 29.664 40.513 27.9533C40.5624 27.4645 40.8094 26.7802 41.0564 26.4381C41.5999 25.5583 42.341 14.3164 41.9952 11.8725L41.7481 9.8685L43.8727 9.57523C45.0091 9.4286 46.3925 9.52636 46.936 9.77074C48.2206 10.5039 49.2582 9.96626 49.2582 8.59768C49.2582 7.669 48.6159 7.03359 46.4913 5.76276C43.6257 4.00316 43.5268 3.80765 44.5644 0.67947C44.8609 -0.200331 44.8114 -0.20033 44.2186 0.532837C43.8727 0.972737 43.2798 1.75478 42.9834 2.24356C42.4893 2.97673 42.4399 2.87897 42.8845 1.70591C43.5762 -0.298085 43.181 -0.346962 41.6493 1.5104ZM5.97674 49.0685C6.12496 49.6062 5.82851 49.1174 5.28502 47.9932C4.74153 46.869 4.19805 44.9139 4.04982 43.5942C3.85219 41.4436 3.9016 41.5413 4.74153 44.6695C5.23562 46.5269 5.7791 48.5309 5.97674 49.0685Z" fill="white"/>
<path d="M66.5508 25.1185V35.1384H69.2682H71.9857V25.1185V15.0985H69.2682H66.5508V25.1185Z" fill="white"/>
<path d="M49.2581 25.3628V35.1873L56.3234 35.0406L63.3393 34.894L63.4876 32.7922L63.6358 30.7394H59.1891H54.6929V23.1633V15.5872H51.9755H49.2581V25.3628Z" fill="white"/>
<path d="M142.639 25.3629V35.1384H145.357H148.074V32.2546V29.4197L150.791 29.1265C155.881 28.6377 158.647 26.0472 158.647 21.9414C158.647 19.9374 158.4 19.2531 157.215 18.0312C155.337 16.1249 153.311 15.5873 147.481 15.5873H142.639V25.3629ZM152.027 20.8661C154.003 22.4302 152.175 24.8741 149.013 24.8741C148.222 24.8741 148.074 24.5319 148.074 22.4302C148.074 20.0841 148.123 19.9863 149.507 19.9863C150.297 19.9863 151.434 20.3773 152.027 20.8661Z" fill="white"/>
<path d="M78.0628 20.328C77.0746 20.5235 76.9264 20.8657 76.9264 22.7719C76.9264 24.9714 76.9264 24.9714 78.3098 24.5804C80.1874 24.0427 84.0412 24.0427 84.3376 24.6293C84.4859 24.9225 83.4977 25.2647 82.0649 25.4113C77.7169 25.949 75.6912 27.7086 75.7406 30.7879C75.8394 34.4048 79.298 36.3111 83.2506 34.9914C84.387 34.6003 85.3258 34.5026 85.3258 34.747C85.3258 34.9914 86.5116 35.138 87.9444 35.0402L90.5136 34.8936L90.6619 29.5171C90.7607 23.3584 90.3654 22.1365 87.7962 20.8657C86.1163 20.0348 81.0273 19.7415 78.0628 20.328ZM85.3258 29.7614C85.3258 30.3969 84.8317 30.9345 83.9918 31.2767C82.3613 31.8632 81.3731 31.521 81.3731 30.2991C81.3731 29.2238 82.0154 28.8816 83.9918 28.8328C85.0293 28.7839 85.3258 29.0283 85.3258 29.7614Z" fill="white"/>
<path d="M102.421 20.3284C102.223 20.5239 100.543 20.6217 98.6164 20.5728L95.2073 20.4262V27.8067V35.1873L97.8259 35.0406L100.395 34.894L100.543 29.9085C100.692 24.9229 100.692 24.874 101.976 24.5808C104.051 24.0431 104.595 25.3139 104.595 30.5927V35.1873L107.213 35.0406L109.783 34.894L110.03 29.7618L110.277 24.6296H111.759H113.241L113.488 29.7618L113.735 34.894L116.354 35.0406L118.923 35.1873V29.0287C118.923 22.87 118.923 22.8212 117.49 21.4037C115.712 19.693 113.044 19.4975 110.623 20.9638L108.992 21.9414L107.708 20.9638C106.472 19.9863 103.162 19.5952 102.421 20.3284Z" fill="white"/>
<path d="M124.951 20.3279C123.963 20.5234 123.815 20.8167 123.963 22.5763C124.111 24.3359 124.26 24.6291 125.1 24.4825C128.953 23.896 130.782 23.8471 131.523 24.287C132.363 24.7269 132.363 24.7758 131.473 25.0202C130.979 25.1668 129.497 25.4112 128.212 25.6067C126.779 25.8022 125.248 26.3887 124.358 27.1219C123.123 28.1972 122.876 28.7349 122.876 30.5434C122.876 34.4047 126.582 36.5553 130.436 34.9424C131.473 34.5513 132.264 34.4047 132.264 34.698C132.264 34.9912 133.351 35.1379 134.882 35.0401L137.452 34.8935V28.9304C137.452 23.0162 137.452 22.9184 136.068 21.5987C134.833 20.3279 134.388 20.2301 130.386 20.1324C128.015 20.1324 125.594 20.1813 124.951 20.3279ZM132.264 29.7613C132.264 30.3967 131.77 30.9344 130.93 31.2765C129.299 31.8631 128.311 31.5209 128.311 30.299C128.311 29.2237 128.953 28.8815 130.93 28.8326C131.967 28.7838 132.264 29.0282 132.264 29.7613Z" fill="white"/>
<path d="M163.737 20.3283C162.452 20.5238 162.353 20.6705 162.502 22.5767C162.65 24.8251 162.403 24.7273 166.454 24.043C168.579 23.7498 170.95 24.1897 170.555 24.874C170.407 25.1672 169.517 25.3627 168.678 25.3627C164.231 25.3627 161.415 27.4645 161.415 30.7393C161.415 34.2585 165.318 36.458 168.974 34.9428C170.061 34.5029 170.901 34.4051 171.049 34.6984C171.247 34.9428 172.433 35.1383 173.816 35.1383H176.237V29.5173C176.237 23.2121 175.792 21.8435 173.52 20.7193C171.938 20.035 167.195 19.8395 163.737 20.3283ZM170.802 29.7617C170.802 30.9348 169.122 31.8635 167.838 31.4725C165.861 30.837 167.096 28.7842 169.419 28.7842C170.456 28.7842 170.802 29.0286 170.802 29.7617Z" fill="white"/>
<path d="M179.201 20.6705C179.201 20.8172 180.436 24.0431 181.919 27.8067L184.587 34.6496L183.648 36.7025C182.166 39.9284 182.264 40.075 185.427 39.9284L188.144 39.7818L192.097 30.2506C194.221 25.0207 196 20.6705 196 20.5728C196 20.475 194.765 20.475 193.233 20.5728L190.417 20.7194L189.182 24.2386C188.49 26.1937 187.798 27.8067 187.65 27.8067C187.452 27.8067 186.761 26.1937 186.069 24.2386L184.784 20.7194L182.017 20.5728C180.436 20.475 179.201 20.5239 179.201 20.6705Z" fill="white"/>
</svg>
