<svg width="40" height="41" viewBox="0 0 40 41" fill="none" xmlns="http://www.w3.org/2000/svg">
<path d="M36.9656 17.8031L36.7891 17.0539H20.5047V23.9461H30.2344C29.2242 28.743 24.5367 31.268 20.7078 31.268C17.9219 31.268 14.9852 30.0961 13.0414 28.2125C12.0159 27.2028 11.1996 26.0008 10.6392 24.6752C10.0789 23.3497 9.78544 21.9266 9.77578 20.4875C9.77578 17.5844 11.0805 14.6805 12.9789 12.7703C14.8773 10.8602 17.7445 9.79141 20.5953 9.79141C23.8602 9.79141 26.2 11.525 27.075 12.3156L31.9727 7.44375C30.5359 6.18125 26.5891 3 20.4375 3C15.6914 3 11.1406 4.81797 7.81406 8.13359C4.53125 11.3984 2.83203 16.1195 2.83203 20.5C2.83203 24.8805 4.43984 29.3656 7.62109 32.6562C11.0203 36.1656 15.8344 38 20.7914 38C25.3016 38 29.5766 36.2328 32.6234 33.0266C35.6187 29.8703 37.168 25.5031 37.168 20.925C37.168 18.9977 36.9742 17.8531 36.9656 17.8031Z" fill="white"/>
</svg>
